<?xml version="1.0" encoding="UTF-8" standalone="no"?>
<!-- Created with Inkscape (http://www.inkscape.org/) -->

<svg
   width="105.27979mm"
   height="26.133581mm"
   viewBox="0 0 105.27978 26.133581"
   version="1.1"
   id="svg2360"
   inkscape:version="1.1.2 (b8e25be833, 2022-02-05)"
   sodipodi:docname="logo_type.svg"
   xmlns:inkscape="http://www.inkscape.org/namespaces/inkscape"
   xmlns:sodipodi="http://sodipodi.sourceforge.net/DTD/sodipodi-0.dtd"
   xmlns:xlink="http://www.w3.org/1999/xlink"
   xmlns="http://www.w3.org/2000/svg"
   xmlns:svg="http://www.w3.org/2000/svg">
  <sodipodi:namedview
     id="namedview2362"
     pagecolor="#505050"
     bordercolor="#eeeeee"
     borderopacity="1"
     inkscape:pageshadow="0"
     inkscape:pageopacity="0"
     inkscape:pagecheckerboard="0"
     inkscape:document-units="mm"
     showgrid="false"
     fit-margin-top="0"
     fit-margin-left="0"
     fit-margin-right="0"
     fit-margin-bottom="0"
     inkscape:zoom="1.6583102"
     inkscape:cx="290.05431"
     inkscape:cy="-7.8393056"
     inkscape:window-width="1920"
     inkscape:window-height="1009"
     inkscape:window-x="1912"
     inkscape:window-y="-8"
     inkscape:window-maximized="1"
     inkscape:current-layer="g1265"
     inkscape:snap-page="true" />
  <defs
     id="defs2357">
    <linearGradient
       inkscape:collect="always"
       id="linearGradient1282">
      <stop
         style="stop-color:#ee2b2b;stop-opacity:1"
         offset="0"
         id="stop1278" />
      <stop
         style="stop-color:#f56021;stop-opacity:1"
         offset="1"
         id="stop1280" />
    </linearGradient>
    <linearGradient
       inkscape:collect="always"
       xlink:href="#linearGradient1282"
       id="linearGradient1284"
       x1="647.06116"
       y1="97.162735"
       x2="663.32275"
       y2="110.04633"
       gradientUnits="userSpaceOnUse" />
  </defs>
  <g
     inkscape:label="Calque 1"
     inkscape:groupmode="layer"
     id="layer1"
     transform="translate(-74.503584,-156.73869)">
    <g
       id="g1265"
       transform="matrix(2.3136284,0,0,2.3136284,-1423.5957,-68.959077)"
       style="fill:#040404;fill-opacity:1;stroke-width:0.432222">
      <path
         id="path5137"
         style="fill:url(#linearGradient1284);fill-opacity:1;stroke:none;stroke-width:0.0483629;stroke-linecap:butt;stroke-linejoin:miter;stroke-miterlimit:4;stroke-dasharray:none;stroke-opacity:1"
         d="m 655.11184,97.551496 c -1.37826,0.0099 -1.71772,1.368909 -1.71772,1.368909 1.06793,-0.05233 1.3046,1.252795 0.23926,1.189595 -0.70858,-0.0421 -1.3258,-0.173651 -1.90995,-0.470259 -0.72236,-0.366784 -1.39409,-0.986065 -2.12545,-2.001427 0,0 -0.18439,1.120489 0.19741,2.0345 -1.11702,-0.364919 -1.66526,-0.581734 -2.28463,-0.923975 0,0 0.6872,1.408481 1.72911,2.244821 l -0.92398,0.27182 c 0,0 2.07014,0.57237 2.05125,1.24509 0.73175,-0.0103 1.17454,0.23201 1.35803,0.54019 0.18349,0.30816 0.29207,1.25052 1.28108,1.39076 -0.0398,-0.49644 0.26658,-1.32813 1.2211,-0.74001 1.05077,0.59275 -0.10472,1.70126 -0.1793,2.01176 -0.17632,0.7333 0.25741,1.03928 0.60356,1.38648 0,0 -0.42918,-1.13598 0.74208,-0.87798 0.84616,0.18639 0.97507,1.13409 0.3855,1.37873 -0.39066,0.16208 -0.88593,0.70141 -0.53692,1.24643 0.16314,-0.64695 1.41748,-0.41834 1.76943,-1.05265 0.4191,-0.75812 -0.35589,-1.44268 -0.98084,-2.27376 -0.44416,-0.59061 -0.18725,-1.42665 0.22222,-1.6366 0.40945,-0.20996 1.30017,-0.25597 1.31517,0.64545 1.21287,-0.34619 0.85463,-0.931 1.11466,-1.24954 0.26001,-0.31854 1.10585,-0.59281 1.71926,-0.56741 -0.0839,-0.45423 1.84743,-1.39268 1.84743,-1.39268 0,0 -0.14524,-0.0639 -0.87716,-0.23564 1.43055,-1.404338 1.50069,-2.656688 1.50069,-2.656688 0,0 -1.12046,1.018252 -1.96318,1.295527 0.37309,-0.996564 0.28318,-2.066538 0.28318,-2.066538 -1.28225,2.019342 -3.10258,2.206 -4.58679,2.370909 0,0 -0.0563,-2.464265 -1.46193,-2.475814 -0.0108,-9e-5 -0.0217,-7.7e-5 -0.0326,0 z m 0.14804,2.916614 c 0.0787,-3e-5 0.15605,0.0206 0.22426,0.06 l 0.80357,0.46405 c 0.1388,0.0802 0.22431,0.22831 0.22428,0.38861 v 0.92759 c 3e-5,0.1603 -0.0855,0.30844 -0.22428,0.38861 l -0.80357,0.46405 c -0.1388,0.0801 -0.30977,0.0801 -0.44855,0 l -0.80356,-0.46405 c -0.13883,-0.0802 -0.22432,-0.22831 -0.22429,-0.38861 v -0.92759 c -3e-5,-0.1603 0.0855,-0.30844 0.22429,-0.38861 l 0.80356,-0.46405 c 0.0682,-0.0393 0.14555,-0.06 0.22429,-0.06 z m -0.019,0.51625 c -0.0507,0.002 -0.0982,0.0149 -0.13436,0.0351 -0.0852,0.0481 -0.0852,0.12611 0,0.17415 0.0849,0.0481 0.2226,0.0481 0.30748,0 0.0851,-0.048 0.0851,-0.1261 0,-0.17415 -0.0457,-0.0256 -0.10909,-0.0385 -0.17312,-0.0351 z m -1.10175,0.31471 c -0.0465,0.004 -0.0747,0.045 -0.0739,0.10801 0,0.0973 0.0697,0.21646 0.15348,0.26613 0.0836,0.0492 0.15042,0.0104 0.14936,-0.0868 0,-0.0971 -0.0695,-0.21579 -0.15298,-0.26562 -0.0267,-0.0159 -0.0529,-0.0234 -0.076,-0.0217 z m 2.21898,0.0139 c -0.0228,-0.002 -0.0489,0.006 -0.0754,0.0212 -0.0838,0.0497 -0.15254,0.16881 -0.15349,0.26613 0,0.0976 0.0659,0.13651 0.14986,0.0868 0.0839,-0.0498 0.15274,-0.16929 0.15349,-0.26665 0,-0.0629 -0.0278,-0.1039 -0.0744,-0.10749 z m -0.40254,0.69764 c -0.0227,-0.002 -0.0488,0.005 -0.0755,0.0207 -0.0838,0.0497 -0.15253,0.16882 -0.15348,0.26613 0,0.0972 0.0657,0.13602 0.14935,0.0868 0.0839,-0.0494 0.15285,-0.16862 0.15399,-0.26613 0,-0.0629 -0.0278,-0.10388 -0.0744,-0.10749 z m -1.01132,0.68419 c -0.0465,0.004 -0.0747,0.045 -0.0739,0.10801 0,0.0973 0.0697,0.21646 0.15348,0.26613 0.0839,0.0497 0.15108,0.0108 0.14986,-0.0868 0,-0.0973 -0.0697,-0.21647 -0.15348,-0.26613 -0.0268,-0.0158 -0.053,-0.0232 -0.076,-0.0212 z m 0.60876,0.0124 c -0.0228,-0.002 -0.0489,0.005 -0.0755,0.0212 -0.0838,0.0497 -0.15253,0.16882 -0.15349,0.26614 0,0.0973 0.0661,0.13589 0.14986,0.0863 0.0838,-0.0497 0.15251,-0.16882 0.15349,-0.26613 0,-0.0629 -0.0278,-0.10388 -0.0744,-0.10749 z"
         sodipodi:nodetypes="ccsccccccccccccsccccccccccccccsccccccccccccccccccccccccccccccccccccccccccccccccccccccccc" />
      <path
         id="path104026"
         style="fill:#181818;fill-opacity:1;stroke-width:0.568169;paint-order:stroke markers fill"
         d="m 671.50321,97.754771 a 0.78911949,0.78911949 0 0 0 -0.39499,0.105431 l -1.4131,0.815612 a 0.78912039,0.78912039 0 0 0 -0.39441,0.6834 v 1.631796 a 0.78912007,0.78912007 0 0 0 0.39441,0.68395 l 1.4131,0.81562 a 0.78912011,0.78912011 0 0 0 0.78941,0 l 1.41253,-0.81562 a 0.78912007,0.78912007 0 0 0 0.39442,-0.68395 v -1.631796 a 0.78912039,0.78912039 0 0 0 -0.39442,-0.6834 l -1.41253,-0.815612 a 0.78911949,0.78911949 0 0 0 -0.39442,-0.105431 z m 13.2066,0 c -0.0851,0 -0.12838,0.04006 -0.12838,0.121065 v 4.552274 c 0,0.0255 0.01,0.0533 0.0323,0.0831 0.0255,0.0298 0.0577,0.0452 0.0959,0.0452 h 1.77068 0.0257 c 0.28131,-0.004 0.55843,-0.0535 0.83123,-0.1473 0.27281,-0.0938 0.51601,-0.23663 0.72913,-0.42845 0.21306,-0.19607 0.38558,-0.44304 0.51771,-0.74141 0.13212,-0.30264 0.19807,-0.66531 0.19807,-1.0873 0,-0.400686 -0.0659,-0.74988 -0.19807,-1.048255 -0.13213,-0.298376 -0.30459,-0.547775 -0.51771,-0.748111 -0.21305,-0.200343 -0.45632,-0.349381 -0.72913,-0.447419 -0.2728,-0.102301 -0.54992,-0.153409 -0.83123,-0.153409 h -0.0257 z m -19.76946,0.01898 c -0.0852,0 -0.12839,0.04064 -0.12839,0.121615 v 4.552284 c 0,0.0255 0.01,0.0533 0.0325,0.0831 0.0254,0.0299 0.0577,0.0446 0.0959,0.0446 h 2.12271 c 0.20456,0 0.39857,-0.0382 0.58186,-0.11493 0.18758,-0.081 0.35141,-0.18995 0.49205,-0.32636 0.14062,-0.14066 0.25152,-0.30262 0.33249,-0.48591 0.081,-0.18754 0.12164,-0.3877 0.12164,-0.60083 0,-0.27706 -0.0684,-0.52834 -0.20481,-0.75426 -0.13637,-0.22591 -0.31746,-0.407524 -0.54338,-0.543926 0.0852,-0.102312 0.15111,-0.213153 0.19807,-0.332492 0.0513,-0.123611 0.0769,-0.246823 0.0769,-0.370431 0,-0.174764 -0.0407,-0.339154 -0.12164,-0.492606 -0.0767,-0.153459 -0.18333,-0.287698 -0.31969,-0.402783 -0.13637,-0.115095 -0.29647,-0.206836 -0.47975,-0.275036 -0.18333,-0.06819 -0.37729,-0.102077 -0.58187,-0.102077 z m 15.17201,0 c -0.0852,0 -0.12789,0.04252 -0.12789,0.127759 v 4.54615 c 0,0.0255 0.01,0.0533 0.0317,0.0831 0.0255,0.0299 0.0577,0.0446 0.0959,0.0446 h 1.12525 c 0.034,0 0.0617,-0.0147 0.0832,-0.0446 0.0224,-0.0299 0.0323,-0.0576 0.0323,-0.0831 v -1.37463 l 0.88198,1.37461 c 0.007,0.0383 0.03,0.0704 0.0642,0.0959 0.034,0.0212 0.0679,0.0318 0.1021,0.0318 h 1.45774 c 0.0554,0 0.0832,-0.0253 0.0832,-0.0765 0,-0.009 -0.002,-0.0153 -0.005,-0.0194 0,-0.009 -0.002,-0.019 -0.007,-0.0318 l -1.22119,-1.82872 c 0.24303,-0.11933 0.43505,-0.2961 0.57573,-0.53055 0.14487,-0.238698 0.21705,-0.509623 0.21705,-0.812264 0,-0.208859 -0.0403,-0.402841 -0.12114,-0.581865 -0.0767,-0.183282 -0.18333,-0.342816 -0.31969,-0.479216 -0.13213,-0.1364 -0.28978,-0.242928 -0.47306,-0.319665 -0.17908,-0.08097 -0.37114,-0.121613 -0.57575,-0.121613 z m -3.95759,0.0062 c -0.0255,0 -0.0472,0.0067 -0.0642,0.01948 -0.0554,0.02123 -0.0954,0.05952 -0.12114,0.114919 l -2.01448,4.51378 c -0.007,0.0255 -0.0125,0.0453 -0.0125,0.058 0,0.0512 0.0278,0.0765 0.0832,0.0765 h 1.23405 c 0.034,0 0.0684,-0.013 0.10263,-0.0384 0.0385,-0.0255 0.0679,-0.0576 0.0892,-0.096 l 0.27505,-0.61979 h 1.83487 l 0.27502,0.61979 c 0.0175,0.0383 0.0429,0.0704 0.0769,0.096 0.0385,0.0255 0.0767,0.0384 0.1149,0.0384 h 1.23399 c 0.0554,0 0.0832,-0.0253 0.0832,-0.0765 0,-0.0127 -0.005,-0.0325 -0.0125,-0.058 l -2.01391,-4.51378 c -0.0125,-0.02985 -0.0319,-0.05325 -0.0575,-0.07028 -0.0225,-0.02123 -0.0427,-0.03612 -0.0642,-0.04463 -0.0224,-0.01274 -0.0405,-0.01948 -0.0574,-0.01948 z m -4.63762,0.882003 a 0.38207285,0.21623906 0 0 1 0.25607,0.06249 0.38207285,0.21623906 0 0 1 0,0.306273 0.38207285,0.21623906 0 0 1 -0.54059,0 0.38207285,0.21623906 0 0 1 0,-0.306273 0.38207285,0.21623906 0 0 1 0.23704,-0.06192 0.38207285,0.21623906 0 0 1 0.0474,-5.57e-4 z m -5.30487,0.135001 h 0.24927 c 0.0894,0 0.16635,0.02957 0.23055,0.08927 0.064,0.05543 0.0959,0.125635 0.0959,0.210881 0,0.08525 -0.0319,0.157906 -0.0959,0.217577 -0.064,0.05543 -0.14088,0.08312 -0.23055,0.08312 h -0.24927 z m 15.14078,0.07644 h 0.35758 c 0.0512,0 0.10039,0.01299 0.14736,0.03849 0.047,0.02123 0.0875,0.0509 0.12164,0.08927 0.0385,0.03409 0.0679,0.07715 0.0892,0.128307 0.0255,0.04689 0.0385,0.09556 0.0385,0.146716 0,0.110823 -0.0425,0.206885 -0.12789,0.287861 -0.081,0.07679 -0.17084,0.114925 -0.2689,0.114925 h -0.35758 z m 4.7057,0.306832 h 0.35145 c 0.14062,0.0085 0.26631,0.04054 0.37713,0.09596 0.1109,0.05116 0.20507,0.121363 0.28175,0.210882 0.0767,0.08525 0.13387,0.185609 0.17234,0.300695 0.0427,0.115095 0.0642,0.236446 0.0642,0.364306 0,0.17049 -0.0259,0.31579 -0.0769,0.43514 -0.0512,0.11934 -0.11939,0.21728 -0.20481,0.29401 -0.081,0.0767 -0.17659,0.13402 -0.28732,0.17239 -0.10669,0.0341 -0.21554,0.0514 -0.32635,0.0514 h -0.35145 z m -16.52767,0.03627 h 5.8e-4 a 0.38207285,0.21514084 60 0 1 0.13338,0.03739 0.38207285,0.21514084 60 0 1 0.26945,0.468055 0.38207285,0.21514084 60 0 1 -0.26333,0.151739 0.38207285,0.21514084 60 0 1 -0.27001,-0.467499 0.38207285,0.21514084 60 0 1 0.12988,-0.189676 z m 3.87893,0.02511 a 0.21514084,0.38207285 30 0 1 0.025,0 0.21514084,0.38207285 30 0 1 0.13112,0.189126 0.21514084,0.38207285 30 0 1 -0.27002,0.468624 0.21514084,0.38207285 30 0 1 -0.26387,-0.152315 0.21514084,0.38207285 30 0 1 0.27056,-0.468615 0.21514084,0.38207285 30 0 1 0.10765,-0.03681 z m 3.23066,0.507667 0.46026,1.029846 h -0.92051 z m -3.93917,0.718546 a 0.21514084,0.38207285 30 0 1 0.025,5.6e-4 0.21514084,0.38207285 30 0 1 0.12988,0.18858 0.21514084,0.38207285 30 0 1 -0.27,0.46805 0.21514084,0.38207285 30 0 1 -0.26334,-0.15172 0.21514084,0.38207285 30 0 1 0.27003,-0.46806 0.21514084,0.38207285 30 0 1 0.10815,-0.0374 z m -6.48923,0.18299 h 0.42846 c 0.0981,0 0.18783,0.0388 0.2689,0.11547 0.0851,0.0767 0.12788,0.17034 0.12788,0.28117 0,0.11082 -0.0425,0.20688 -0.12788,0.28786 -0.0809,0.0767 -0.17084,0.11492 -0.2689,0.11492 h -0.42846 z m 4.73527,1.02091 h 5.7e-4 a 0.38207285,0.21514084 60 0 1 0.13338,0.0374 0.38207285,0.21514084 60 0 1 0.26945,0.46806 0.38207285,0.21514084 60 0 1 -0.26331,0.1523 0.38207285,0.21514084 60 0 1 -0.27002,-0.46805 0.38207285,0.21514084 60 0 1 0.12987,-0.18968 z m 1.04603,0.0222 a 0.21514084,0.38207285 30 0 1 0.025,0 0.21514084,0.38207285 30 0 1 0.13113,0.18968 0.21514084,0.38207285 30 0 1 -0.26999,0.46806 0.21514084,0.38207285 30 0 1 -0.26389,-0.15232 0.21514084,0.38207285 30 0 1 0.27057,-0.46749 0.21514084,0.38207285 30 0 1 0.10765,-0.0379 z m -4.89259,2.14113 c -0.28131,0.007 -0.55843,0.0614 -0.83123,0.15961 -0.27278,0.0979 -0.51546,0.24527 -0.72857,0.44127 -0.21305,0.19183 -0.38801,0.43502 -0.52441,0.72916 -0.13213,0.2941 -0.20057,0.63899 -0.20482,1.0354 v 0.0257 c 0.005,0.40496 0.0727,0.75659 0.20482,1.05496 0.13638,0.29838 0.31129,0.5478 0.52441,0.74812 0.21306,0.20032 0.45579,0.35183 0.72857,0.45413 0.2728,0.10221 0.54992,0.15536 0.83123,0.15961 h 0.0257 c 0.31971,0 0.59493,-0.0467 0.82512,-0.14063 0.23453,-0.0979 0.43028,-0.21505 0.58801,-0.35145 0.1576,-0.14062 0.28147,-0.28784 0.37098,-0.4413 0.0937,-0.15336 0.16211,-0.28771 0.20482,-0.40277 l 0.025,-0.10221 c 0.0125,-0.0512 0.025,-0.1109 0.0325,-0.17908 0.0125,-0.0724 0.0224,-0.14936 0.0317,-0.23054 0.007,-0.081 0.0125,-0.16161 0.0125,-0.24278 v -0.50543 c 0,-0.034 -0.02,-0.0662 -0.0575,-0.0959 -0.0384,-0.034 -0.0705,-0.0507 -0.0959,-0.0507 h -1.53472 c -0.0255,0 -0.0489,0.0175 -0.0702,0.0507 -0.0175,0.0297 -0.0257,0.062 -0.0257,0.0959 v 0.78043 c 0,0.0512 0.007,0.0894 0.0257,0.11489 0.0225,0.0255 0.0448,0.0384 0.0702,0.0384 h 0.28171 c -0.10242,0.12788 -0.22404,0.21105 -0.36483,0.24927 -0.14063,0.0384 -0.28542,0.0574 -0.43461,0.0574 -0.13637,0 -0.26203,-0.0302 -0.37713,-0.0899 -0.11089,-0.0597 -0.20681,-0.13838 -0.28786,-0.23654 -0.081,-0.0979 -0.14262,-0.2108 -0.18533,-0.33861 -0.0427,-0.12788 -0.0642,-0.26026 -0.0642,-0.39666 0,-0.17484 0.0278,-0.3281 0.0832,-0.46026 0.0597,-0.13212 0.13662,-0.24302 0.23053,-0.33247 0.0937,-0.0894 0.20032,-0.15785 0.31966,-0.20481 0.12363,-0.047 0.24677,-0.0746 0.37043,-0.0832 0.18334,0.007 0.34769,0.0515 0.4926,0.12838 0.14488,0.0724 0.26626,0.18083 0.36432,0.32578 h 0.959 c 0.0982,0 0.1646,-0.0278 0.19857,-0.0832 0.034,-0.0554 0.0507,-0.12139 0.0507,-0.19807 0,-0.0894 -0.0364,-0.21505 -0.1089,-0.3771 -0.0724,-0.16635 -0.18958,-0.33065 -0.35145,-0.49262 -0.16185,-0.16635 -0.37318,-0.3091 -0.63319,-0.42844 -0.26002,-0.12363 -0.57533,-0.18533 -0.94619,-0.18533 z m 8.92603,0 c -0.0851,0 -0.12789,0.0425 -0.12789,0.12788 v 4.55228 c 0,0.0255 0.01,0.0532 0.0317,0.0832 0.0255,0.0297 0.0577,0.0448 0.0959,0.0448 h 1.1509 c 0.0385,0 0.0722,-0.0149 0.1021,-0.0448 0.034,-0.0297 0.0512,-0.0575 0.0512,-0.0832 v -2.25048 l 0.72862,2.25048 c 0.0125,0.0255 0.0342,0.0489 0.0642,0.0702 0.0342,0.0225 0.062,0.0325 0.0832,0.0325 0,0.0175 0.0175,0.0252 0.0513,0.0252 h 1.31045 c 0.0175,0 0.0275,-0.002 0.0317,-0.005 l 0.02,-0.02 c 0.0255,0 0.0489,-0.01 0.0702,-0.0325 0.0225,-0.0224 0.038,-0.0448 0.0507,-0.0702 l 0.7548,-2.25049 v 2.25049 c 0,0.0254 0.01,0.0532 0.0317,0.0832 0.0255,0.0297 0.0577,0.0447 0.0959,0.0447 h 1.15087 c 0.0384,0 0.0722,-0.0149 0.1022,-0.0447 0.0342,-0.0297 0.0512,-0.0575 0.0512,-0.0832 v -4.55229 c 0,-0.0384 -0.0175,-0.0679 -0.0512,-0.0892 -0.0297,-0.0254 -0.0637,-0.0385 -0.1022,-0.0385 h -1.37459 c -0.081,0 -0.14936,0.0425 -0.20481,0.12788 l -1.27868,2.90262 -1.31043,-2.90262 c -0.0125,-0.0384 -0.0367,-0.0679 -0.0709,-0.0892 -0.034,-0.0255 -0.0679,-0.0384 -0.1021,-0.0384 z m 6.8284,0 c -0.0851,0 -0.12788,0.0425 -0.12788,0.12788 v 4.54614 c 0,0.0851 0.0425,0.12788 0.12788,0.12788 h 3.0884 c 0.0255,0 0.0489,-0.005 0.0702,-0.02 0.0225,-0.0175 0.0317,-0.0448 0.0317,-0.0832 v -1.05496 c 0,-0.0384 -0.01,-0.0642 -0.0317,-0.0769 -0.0224,-0.0175 -0.0447,-0.0257 -0.0702,-0.0257 h -1.68199 v -0.49875 h 1.18324 c 0.0224,0 0.0422,-0.01 0.0637,-0.0317 0.0225,-0.0225 0.0323,-0.0447 0.0323,-0.0702 v -1.05497 c 0,-0.0384 -0.01,-0.0684 -0.0323,-0.0899 -0.0224,-0.0255 -0.0422,-0.038 -0.0637,-0.038 h -1.18324 v -0.47307 h 1.68199 c 0.0255,0 0.0489,-0.01 0.0702,-0.0325 0.0225,-0.0255 0.0317,-0.0577 0.0317,-0.0959 v -1.05496 c 0,-0.0255 -0.01,-0.0489 -0.0317,-0.0702 -0.0224,-0.02 -0.0447,-0.0317 -0.0702,-0.0317 z m 4.55897,0.007 c -0.18757,0 -0.34575,0.064 -0.47364,0.19182 -0.12788,0.12788 -0.19133,0.28554 -0.19133,0.47307 0,0.17483 0.0554,0.32624 0.16635,0.4541 0.11515,0.12364 0.25739,0.19632 0.42791,0.21756 l -0.0507,0.51772 c 0.0224,0.0297 0.0532,0.0447 0.0959,0.0447 0.034,0 0.0595,-0.007 0.0765,-0.0257 0.10242,-0.0724 0.19657,-0.16361 0.28172,-0.27448 0.0724,-0.0937 0.14037,-0.20706 0.20431,-0.33919 0.0682,-0.13637 0.11314,-0.29837 0.13437,-0.48591 v -0.10864 c 0,-0.18758 -0.064,-0.34521 -0.19181,-0.47309 -0.12789,-0.12788 -0.2874,-0.19183 -0.47922,-0.19183 z m 1.43821,0 c -0.0342,0 -0.0637,0.0125 -0.0892,0.0384 -0.0254,0.0255 -0.0385,0.0558 -0.0385,0.0899 v 1.22732 c 0,0.034 0.0125,0.0637 0.0385,0.0892 0.0255,0.0255 0.0552,0.0384 0.0892,0.0384 h 1.89289 l -1.89289,1.66917 c -0.0342,0.0225 -0.0637,0.0509 -0.0892,0.0892 -0.0254,0.0384 -0.0385,0.0765 -0.0385,0.1149 v 1.31717 c 0,0.034 0.0125,0.0642 0.0385,0.0899 0.0255,0.0255 0.0552,0.038 0.0892,0.038 h 4.03455 c 0.034,0 0.0642,-0.0125 0.0899,-0.038 0.0255,-0.0254 0.0379,-0.0556 0.0379,-0.0899 v -1.20837 c 0,-0.0384 -0.0125,-0.0705 -0.0379,-0.0959 -0.0255,-0.0254 -0.0557,-0.0384 -0.0899,-0.0384 h -2.04572 l 2.04572,-1.73224 c 0.034,-0.007 0.0642,-0.0325 0.0899,-0.0709 0.0255,-0.0384 0.0379,-0.0742 0.0379,-0.10815 v -1.29147 c 0,-0.0342 -0.0125,-0.0642 -0.0379,-0.0899 -0.0255,-0.0255 -0.0557,-0.0384 -0.0899,-0.0384 z m -16.7837,0.0125 c -0.0255,0 -0.0465,0.007 -0.0636,0.02 -0.0554,0.0225 -0.0961,0.0595 -0.12165,0.1149 l -2.01395,4.51379 c -0.007,0.0255 -0.0125,0.0448 -0.0125,0.0575 0,0.0513 0.0278,0.0769 0.0832,0.0769 h 1.23404 c 0.034,0 0.0679,-0.0125 0.1021,-0.0384 0.0385,-0.0255 0.0685,-0.0577 0.0899,-0.0959 l 0.27504,-0.61981 h 1.83485 l 0.27502,0.61981 c 0.0175,0.0384 0.0425,0.0705 0.0765,0.0959 0.0384,0.0254 0.0765,0.0384 0.1149,0.0384 h 1.23405 c 0.0554,0 0.0832,-0.0257 0.0832,-0.0769 0,-0.0125 -0.002,-0.0319 -0.0125,-0.0575 l -2.0145,-4.51379 c -0.0125,-0.0297 -0.0319,-0.0532 -0.0575,-0.0702 -0.0224,-0.02 -0.0422,-0.036 -0.0636,-0.0448 -0.0224,-0.0125 -0.041,-0.02 -0.058,-0.02 z m 0.48587,1.9693 0.46083,1.02931 h -0.92105 z" />
      <g
         aria-label="Board  Game'Z"
         transform="matrix(0.06399657,0,0,0.06399657,505.32236,69.604583)"
         id="text80941"
         style="font-size:40px;line-height:0.95;font-family:Maskoolin;-inkscape-font-specification:'Maskoolin, Normal';white-space:pre;shape-inside:url(#rect80943);fill:#181818;fill-opacity:1" />
    </g>
  </g>
</svg>
